<svg width="48" height="55" viewBox="0 0 48 55" fill="none" xmlns="http://www.w3.org/2000/svg">
<mask id="path-1-outside-1_4_15" maskUnits="userSpaceOnUse" x="0" y="3" width="48" height="48" fill="black">
<rect fill="white" y="3" width="48" height="48"/>
<path fill-rule="evenodd" clip-rule="evenodd" d="M47 27C47 39.7025 36.7025 50 24 50V45.9934C24.1661 45.9978 24.3328 46 24.5 46C34.7173 46 43 37.7173 43 27.5C43 17.2827 34.7173 9 24.5 9C14.4499 9 6.27159 17.0139 6.00663 27H1C1 14.2975 11.2975 4 24 4C36.7025 4 47 14.2975 47 27Z"/>
</mask>
<path fill-rule="evenodd" clip-rule="evenodd" d="M47 27C47 39.7025 36.7025 50 24 50V45.9934C24.1661 45.9978 24.3328 46 24.5 46C34.7173 46 43 37.7173 43 27.5C43 17.2827 34.7173 9 24.5 9C14.4499 9 6.27159 17.0139 6.00663 27H1C1 14.2975 11.2975 4 24 4C36.7025 4 47 14.2975 47 27Z" fill="url(#paint0_linear_4_15)"/>
<path d="M24 50H23V51H24V50ZM24 45.9934L24.0265 44.9937L23 44.9665V45.9934H24ZM6.00663 27V28H6.98044L7.00627 27.0265L6.00663 27ZM1 27H0V28H1V27ZM24 51C37.2548 51 48 40.2548 48 27H46C46 39.1503 36.1503 49 24 49V51ZM23 45.9934V50H25V45.9934H23ZM23.9735 46.993C24.1484 46.9977 24.324 47 24.5 47V45C24.3416 45 24.1838 44.9979 24.0265 44.9937L23.9735 46.993ZM24.5 47C35.2696 47 44 38.2696 44 27.5H42C42 37.165 34.165 45 24.5 45V47ZM44 27.5C44 16.7304 35.2696 8 24.5 8V10C34.165 10 42 17.835 42 27.5H44ZM24.5 8C13.9065 8 5.28628 16.447 5.00698 26.9735L7.00627 27.0265C7.2569 17.5807 14.9933 10 24.5 10V8ZM1 28H6.00663V26H1V28ZM24 3C10.7452 3 0 13.7452 0 27H2C2 14.8497 11.8497 5 24 5V3ZM48 27C48 13.7452 37.2548 3 24 3V5C36.1503 5 46 14.8497 46 27H48Z" fill="white" mask="url(#path-1-outside-1_4_15)"/>
<path fill-rule="evenodd" clip-rule="evenodd" d="M8.00743 27C8.00249 27.1661 8 27.3327 8 27.5C8 36.6127 15.3873 44 24.5 44C33.6127 44 41 36.6127 41 27.5C41 18.3873 33.6127 11 24.5 11C24.3327 11 24.1661 11.0025 24 11.0074V15C30.6274 15 36 20.3726 36 27C36 33.6274 30.6274 39 24 39C17.3726 39 12 33.6274 12 27H8.00743Z" fill="url(#paint1_linear_4_15)"/>
<mask id="path-4-outside-2_4_15" maskUnits="userSpaceOnUse" x="13" y="16" width="22" height="22" fill="black">
<rect fill="white" x="13" y="16" width="22" height="22"/>
<path fill-rule="evenodd" clip-rule="evenodd" d="M24 17C18.4772 17 14 21.4772 14 27C14 32.5228 18.4772 37 24 37C29.5228 37 34 32.5228 34 27H29.9776C29.9924 27.1647 30 27.3315 30 27.5C30 30.5376 27.5376 33 24.5 33C21.4624 33 19 30.5376 19 27.5C19 24.631 21.1967 22.275 24 22.0224V17Z"/>
</mask>
<path fill-rule="evenodd" clip-rule="evenodd" d="M24 17C18.4772 17 14 21.4772 14 27C14 32.5228 18.4772 37 24 37C29.5228 37 34 32.5228 34 27H29.9776C29.9924 27.1647 30 27.3315 30 27.5C30 30.5376 27.5376 33 24.5 33C21.4624 33 19 30.5376 19 27.5C19 24.631 21.1967 22.275 24 22.0224V17Z" fill="url(#paint2_linear_4_15)"/>
<path d="M24 17H25V16H24V17ZM34 27H35V26H34V27ZM29.9776 27V26H28.8834L28.9816 27.0898L29.9776 27ZM24 22.0224L24.0898 23.0184L25 22.9364V22.0224H24ZM24 16C17.9249 16 13 20.9249 13 27H15C15 22.0294 19.0294 18 24 18V16ZM13 27C13 33.0751 17.9249 38 24 38V36C19.0294 36 15 31.9706 15 27H13ZM24 38C30.0751 38 35 33.0751 35 27H33C33 31.9706 28.9706 36 24 36V38ZM34 26H29.9776V28H34V26ZM31 27.5C31 27.3015 30.9911 27.1047 30.9735 26.9102L28.9816 27.0898C28.9938 27.2246 29 27.3615 29 27.5H31ZM24.5 34C28.0899 34 31 31.0899 31 27.5H29C29 29.9853 26.9853 32 24.5 32V34ZM18 27.5C18 31.0899 20.9101 34 24.5 34V32C22.0147 32 20 29.9853 20 27.5H18ZM23.9102 21.0265C20.5963 21.3251 18 24.1088 18 27.5H20C20 25.1532 21.7972 23.225 24.0898 23.0184L23.9102 21.0265ZM25 22.0224V17H23V22.0224H25Z" fill="white" mask="url(#path-4-outside-2_4_15)"/>
<defs>
<linearGradient id="paint0_linear_4_15" x1="-6" y1="12" x2="24" y2="50" gradientUnits="userSpaceOnUse">
<stop stop-color="#B39DDB"/>
<stop offset="1" stop-color="#673AB7"/>
</linearGradient>
<linearGradient id="paint1_linear_4_15" x1="12" y1="24" x2="42.5" y2="20" gradientUnits="userSpaceOnUse">
<stop stop-color="#90CAF9"/>
<stop offset="1" stop-color="#1E88E5"/>
</linearGradient>
<linearGradient id="paint2_linear_4_15" x1="23" y1="35.5" x2="16.5" y2="20" gradientUnits="userSpaceOnUse">
<stop stop-color="#673AB7"/>
<stop offset="1" stop-color="#4527A0"/>
</linearGradient>
</defs>
</svg>
